<svg width="24" height="24" viewBox="0 0 24 24" fill="none" xmlns="http://www.w3.org/2000/svg">
<path fill-rule="evenodd" clip-rule="evenodd" d="M23.7066 0.29375C23.7998 0.38663 23.8736 0.496967 23.924 0.618442C23.9744 0.739916 24.0004 0.870142 24.0004 1.00166C24.0004 1.13318 23.9744 1.2634 23.924 1.38488C23.8736 1.50635 23.7998 1.61669 23.7066 1.70957L1.70944 23.7068C1.52169 23.8945 1.26705 24 1.00153 24C0.736015 24 0.481372 23.8945 0.293622 23.7068C0.105873 23.519 0.000396729 23.2644 0.000396729 22.9989C0.000396729 22.7333 0.105873 22.4787 0.293622 22.291L22.2908 0.29375C22.3837 0.200635 22.494 0.126759 22.6155 0.0763529C22.737 0.0259464 22.8672 0 22.9987 0C23.1303 0 23.2605 0.0259464 23.382 0.0763529C23.5034 0.126759 23.6138 0.200635 23.7066 0.29375V0.29375Z" fill="#171733"/>
<path fill-rule="evenodd" clip-rule="evenodd" d="M0.293713 0.29375C0.20061 0.38663 0.126743 0.496967 0.0763432 0.618442C0.0259431 0.739916 0 0.870142 0 1.00166C0 1.13318 0.0259431 1.2634 0.0763432 1.38488C0.126743 1.50635 0.20061 1.61669 0.293713 1.70957L22.2881 23.7068C22.4758 23.8945 22.7305 24 22.9959 24C23.2614 24 23.516 23.8945 23.7038 23.7068C23.8915 23.519 23.9969 23.2644 23.9969 22.9989C23.9969 22.7333 23.8915 22.4787 23.7038 22.291L1.70935 0.29375C1.61649 0.200635 1.50616 0.126759 1.3847 0.0763529C1.26324 0.0259464 1.13303 0 1.00153 0C0.870032 0 0.739822 0.0259464 0.618363 0.0763529C0.496904 0.126759 0.386581 0.200635 0.293713 0.29375V0.29375Z" fill="#171733"/>
</svg>
