<svg width="56" height="58" viewBox="0 0 56 58" fill="none" xmlns="http://www.w3.org/2000/svg">
<path fill-rule="evenodd" clip-rule="evenodd" d="M52.8223 22.4552V4.61562C52.8223 3.92248 52.2603 3.36046 51.5671 3.36046C51.3722 3.36046 51.1802 3.40584 51.0058 3.49302L29.6074 14.1923C29.0332 14.4792 28.4003 14.6287 27.7587 14.6287C27.1169 14.6287 26.484 14.4792 25.91 14.1923L4.51139 3.49302C3.89157 3.18299 3.13752 3.43427 2.82749 4.05432C2.74031 4.22868 2.69493 4.42072 2.69493 4.61562V22.4552C2.69493 22.8526 2.37296 23.175 1.97551 23.175C1.57807 23.175 1.25562 22.8526 1.25562 22.4552V4.61562C1.25562 4.19739 1.35307 3.7849 1.54009 3.41062C2.20577 2.07974 3.82422 1.54018 5.15509 2.20562L26.5537 12.9049C26.9278 13.092 27.3403 13.1894 27.7587 13.1894C28.177 13.1894 28.5895 13.092 28.9637 12.9049L50.3621 2.20562C50.7364 2.0186 51.1489 1.92115 51.5671 1.92115C53.0554 1.92115 54.2616 3.12758 54.2616 4.61562V22.4552C54.2616 22.8526 53.9394 23.175 53.542 23.175C53.1445 23.175 52.8223 22.8526 52.8223 22.4552Z" stroke="#FA1476" stroke-width="2"/>
<path d="M1.35668 35.6701C1.15964 35.6701 1 35.5199 1 35.335C1 35.1499 1.15964 35 1.35668 35H42.7894C49.2571 35 54.5 39.9248 54.5 46C54.5 52.075 49.2571 57 42.7894 57H3.89062C2.29426 57 1 55.7843 1 54.2848V38.8076C1 38.6228 1.15964 38.4726 1.35668 38.4726C1.55373 38.4726 1.71337 38.6228 1.71337 38.8076V54.2848C1.71337 55.4141 2.6881 56.3299 3.89062 56.3299H42.7894C48.863 56.3299 53.7866 51.7051 53.7866 46C53.7866 40.2949 48.863 35.6701 42.7894 35.6701H1.35668Z" stroke="#FA1476" stroke-width="2" stroke-miterlimit="10" stroke-linecap="round" stroke-linejoin="round"/>
</svg>
