<svg width="20" height="20" viewBox="0 0 20 20" fill="none" xmlns="http://www.w3.org/2000/svg">
<path fill-rule="evenodd" clip-rule="evenodd" d="M2.54917 17.7008C2.90081 18.0525 3.37772 18.25 3.875 18.25H16.375C16.8723 18.25 17.3492 18.0525 17.7008 17.7008C18.0525 17.3492 18.25 16.8723 18.25 16.375V10.125V3.875C18.25 3.37772 18.0525 2.90081 17.7008 2.54917C17.3492 2.19754 16.8723 2 16.375 2H13.875H6.375H3.875C3.37772 2 2.90081 2.19754 2.54917 2.54917C2.19754 2.90081 2 3.37772 2 3.875V10.125V16.375C2 16.8723 2.19754 17.3492 2.54917 17.7008ZM6.375 3.25H3.875C3.70924 3.25 3.55027 3.31585 3.43306 3.43306C3.31585 3.55027 3.25 3.70924 3.25 3.875V10.125V16.375C3.25 16.52 3.30041 16.6599 3.39154 16.7711C3.40456 16.787 3.41841 16.8023 3.43306 16.8169C3.55027 16.9342 3.70924 17 3.875 17H16.375C16.52 17 16.6599 16.9496 16.7711 16.8585C16.787 16.8454 16.8023 16.8316 16.8169 16.8169C16.9342 16.6997 17 16.5408 17 16.375V10.125V3.875C17 3.70924 16.9342 3.55027 16.8169 3.43306C16.6997 3.31585 16.5408 3.25 16.375 3.25H13.875H6.375Z" fill="#525252"/>
</svg>
