<svg width="153" height="25" viewBox="0 0 153 25" fill="none" xmlns="http://www.w3.org/2000/svg">
<path d="M46.2917 14.3017C46.2703 14.2465 46.228 14.1999 46.1728 14.1743C46.1174 14.149 46.0537 14.149 45.9985 14.166C45.013 14.5308 43.379 14.8278 42.0917 14.8278C39.275 14.8278 37.9326 14.0683 37.9326 9.75397C37.9326 6.30518 38.3447 4.68031 42.0917 4.68031C43.1538 4.68031 44.4392 4.83304 45.6924 5.19786C45.7943 5.22758 45.9049 5.18091 45.9516 5.08757C46.2991 4.32346 46.804 3.08763 47.1756 2.17795C47.2271 2.05208 47.2759 1.93232 47.3213 1.82107C47.3512 1.76168 47.3512 1.6938 47.3257 1.63439C47.3002 1.575 47.2491 1.52836 47.1854 1.50713C45.537 0.981091 43.5701 0.675659 41.7985 0.675659C35.8976 0.675659 33.2681 3.45431 33.2681 9.69048C33.2681 16.0156 35.8976 18.8366 41.7985 18.8366C43.2771 18.8366 46.1914 18.527 47.5975 17.967C47.7079 17.9203 47.7675 17.7931 47.725 17.6827L46.2917 14.3017Z" fill="#0066B3"/>
<path d="M0.648926 1.3625C0.648926 1.24394 0.744773 1.14783 0.863005 1.14783H12.9814C13.1328 1.14783 13.2351 1.30418 13.1762 1.44547L11.6756 5.05248C11.6359 5.14776 11.5453 5.19109 11.4591 5.18252C11.4522 5.18324 11.445 5.18359 11.4378 5.18359H5.18709V18.1495C5.18709 18.2682 5.09131 18.3642 4.97305 18.3642H0.863005C0.744773 18.3642 0.648926 18.2682 0.648926 18.1495V1.3625Z" fill="#0066B3"/>
<path fill-rule="evenodd" clip-rule="evenodd" d="M14.1919 9.6896C14.1919 3.20266 16.4383 0.675659 22.2072 0.675659C28.0224 0.675659 30.2897 3.20266 30.2897 9.6896C30.2897 16.2752 28.0224 18.8366 22.2072 18.8366C16.4383 18.8366 14.1919 16.2752 14.1919 9.6896ZM18.7602 9.75397C18.7602 14.3275 19.5788 15.0569 22.2072 15.0569C24.886 15.0569 25.7215 14.3275 25.7215 9.75397C25.7215 4.88447 24.8103 4.45116 22.2072 4.45116C19.6545 4.45116 18.7602 4.88447 18.7602 9.75397Z" fill="#0066B3"/>
<path d="M80.8186 14.3017C80.7974 14.2465 80.7549 14.1999 80.6997 14.1743C80.6445 14.149 80.5808 14.149 80.5256 14.166C79.5398 14.5308 77.9059 14.8278 76.6188 14.8278C73.8021 14.8278 72.4596 14.0683 72.4596 9.75397C72.4596 6.30518 72.8718 4.68031 76.6188 4.68031C77.6807 4.68031 78.966 4.83304 80.2195 5.19786C80.3213 5.22758 80.4317 5.18091 80.4784 5.08757C80.8262 4.32346 81.3311 3.08763 81.7026 2.17795C81.7539 2.05208 81.8028 1.93232 81.8484 1.82107C81.8781 1.76168 81.8781 1.6938 81.8528 1.63439C81.8272 1.575 81.7762 1.52836 81.7125 1.50713C80.0641 0.981091 78.0972 0.675659 76.3256 0.675659C70.4247 0.675659 67.7949 3.45431 67.7949 9.69048C67.7949 16.0156 70.4247 18.8366 76.3256 18.8366C77.804 18.8366 80.7184 18.527 82.1246 17.967C82.235 17.9203 82.2946 17.7931 82.252 17.6827L80.8186 14.3017Z" fill="#EE2F53"/>
<path d="M84.4127 18.3643H88.6336C88.7233 18.3643 88.8088 18.304 88.8345 18.2183C89.4845 16.1702 90.0618 13.8647 90.5494 11.3231C90.9686 9.15309 91.2243 7.09717 91.3761 5.18359H95.5019V18.1496C95.5019 18.268 95.5977 18.3643 95.716 18.3643H99.826C99.9443 18.3643 100.04 18.268 100.04 18.1496V1.3625C100.04 1.24394 99.9443 1.14783 99.826 1.14783H87.2822C87.1667 1.14783 87.0727 1.23798 87.0684 1.3539C86.9529 3.92562 86.6791 6.80655 86.1574 9.932C85.6486 12.9547 84.9129 15.6809 84.2073 18.0894C84.1689 18.2268 84.2715 18.3643 84.4127 18.3643Z" fill="#EE2F53"/>
<path d="M122.661 1.14783C122.543 1.14783 122.447 1.24394 122.447 1.3625V18.1496C122.447 18.268 122.543 18.3643 122.661 18.3643H126.771C126.89 18.3643 126.985 18.268 126.985 18.1496V5.18359H133.236C133.244 5.18359 133.25 5.18322 133.258 5.18252C133.344 5.19109 133.434 5.14774 133.474 5.05248L134.975 1.44547C135.033 1.30415 134.931 1.14783 134.78 1.14783H122.661Z" fill="#EE2F53"/>
<path d="M49.6968 1.14783C49.5485 1.14783 49.4451 1.29438 49.4961 1.43273L55.7409 18.3671C54.8597 20.2249 53.8807 22.1804 52.761 24.3603C52.6877 24.503 52.7898 24.6756 52.9501 24.6756H57.3925C57.4732 24.6756 57.5476 24.6291 57.5841 24.5571C60.8712 17.8491 63.2902 11.9028 66.5974 1.43151C66.6425 1.29307 66.5404 1.14783 66.3949 1.14783H62.2686C62.1729 1.14783 62.0884 1.21319 62.062 1.30535C60.7889 5.78191 59.6149 9.2859 58.2541 12.6627L54.0591 1.28703C54.0284 1.20342 53.9481 1.14783 53.8584 1.14783H49.6968Z" fill="#EE2F53"/>
<path d="M102.621 1.43273C102.57 1.29436 102.673 1.14783 102.822 1.14783H106.983C107.073 1.14783 107.153 1.20342 107.184 1.28701L111.379 12.6628C112.74 9.28574 113.914 5.78197 115.187 1.30535C115.213 1.21319 115.298 1.14783 115.394 1.14783H119.52C119.665 1.14783 119.767 1.29307 119.722 1.43148C116.415 11.9026 113.996 17.8489 110.709 24.5571C110.672 24.6291 110.598 24.6754 110.517 24.6754H106.075C105.915 24.6754 105.812 24.503 105.886 24.3603C107.005 22.1805 107.984 20.2249 108.866 18.3669L102.621 1.43273Z" fill="#EE2F53"/>
<path d="M147.879 1.14783H151.987C152.107 1.14783 152.201 1.24206 152.197 1.36202V17.1658C152.197 17.2601 152.141 17.3456 152.051 17.3757C150.147 18.104 146.938 18.8364 144.063 18.8364C139.138 18.8364 137.144 16.6773 137.045 11.1639C137.041 11.151 137.041 1.38772 137.041 1.38772V1.36202C137.041 1.24206 137.135 1.14783 137.255 1.14783H141.363C141.482 1.14783 141.577 1.24206 141.577 1.36202V11.0696C141.671 13.9998 142.394 14.7025 144.884 14.7025C145.885 14.7025 146.775 14.5825 147.665 14.334V1.36202C147.665 1.24206 147.759 1.14783 147.879 1.14783Z" fill="#EE2F53"/>
</svg>
