<svg width="41" height="40" viewBox="0 0 41 40" fill="none" xmlns="http://www.w3.org/2000/svg">
<path fill-rule="evenodd" clip-rule="evenodd" d="M10.8839 10.2774C11.1183 10.043 11.4362 9.91132 11.7678 9.91132C12.0993 9.91132 12.4172 10.043 12.6516 10.2774L30.3293 27.9551C30.5637 28.1895 30.6954 28.5075 30.6954 28.839C30.6954 29.1705 30.5637 29.4885 30.3293 29.7229C30.0949 29.9573 29.777 30.089 29.4454 30.089C29.1139 30.089 28.796 29.9573 28.5615 29.7229L10.8839 12.0452C10.6495 11.8108 10.5178 11.4928 10.5178 11.1613C10.5178 10.8298 10.6495 10.5119 10.8839 10.2774Z" fill="#3D3D3D"/>
<path fill-rule="evenodd" clip-rule="evenodd" d="M10.904 29.3294C10.6695 29.095 10.5378 28.7771 10.5378 28.4456C10.5378 28.114 10.6695 27.7961 10.904 27.5617L28.5816 9.884C28.8161 9.64958 29.134 9.51789 29.4655 9.51789C29.797 9.51789 30.115 9.64958 30.3494 9.884C30.5838 10.1184 30.7155 10.4364 30.7155 10.7679C30.7155 11.0994 30.5838 11.4174 30.3494 11.6518L12.6717 29.3294C12.4373 29.5639 12.1194 29.6956 11.7878 29.6956C11.4563 29.6956 11.1384 29.5639 10.904 29.3294Z" fill="#3D3D3D"/>
</svg>
