<?xml version="1.0" standalone="no"?>
<!DOCTYPE svg PUBLIC "-//W3C//DTD SVG 20010904//EN"
 "http://www.w3.org/TR/2001/REC-SVG-20010904/DTD/svg10.dtd">
<svg version="1.0" xmlns="http://www.w3.org/2000/svg"
 width="928.000000pt" height="928.000000pt" viewBox="0 0 928.000000 928.000000"
 preserveAspectRatio="xMidYMid meet">
<metadata>
Created by potrace 1.14, written by Peter Selinger 2001-2017
</metadata>
<g transform="translate(0.000000,928.000000) scale(0.100000,-0.100000)"
fill="#000000" stroke="none">
<path d="M8408 9135 c-2 -2 -28 -5 -58 -8 -54 -5 -79 -9 -123 -22 -12 -4 -816
-403 -1787 -888 l-1765 -882 -75 0 c-73 0 -79 2 -215 70 -77 39 -143 74 -146
78 -3 5 -9 8 -13 7 -5 -1 -1571 779 -1766 880 -36 19 -67 34 -70 35 -3 0 -317
157 -697 347 -381 191 -693 344 -693 342 0 -3 -8 0 -18 5 -11 6 -32 13 -48 17
-39 10 -241 10 -279 1 -16 -5 -35 -9 -41 -10 -7 -2 -45 -19 -85 -40 -184 -91
-303 -263 -324 -466 -3 -29 -8 -57 -11 -62 -3 -5 -1 -9 5 -9 6 0 6 -11 1 -30
-5 -16 -5 -32 0 -35 7 -4 3 -75 -5 -83 -2 -2 1 -16 5 -32 5 -16 5 -45 0 -64
-4 -20 -5 -36 -1 -36 3 0 6 -14 7 -30 1 -17 -2 -30 -6 -30 -5 0 -5 -15 -1 -33
5 -18 5 -41 1 -52 -4 -11 -3 -31 2 -44 5 -13 5 -27 1 -30 -9 -7 -10 -32 -2
-46 4 -5 5 -19 3 -30 -2 -11 -4 -36 -4 -55 1 -80 0 -138 0 -183 -1 -26 2 -57
5 -67 4 -11 2 -20 -3 -20 -5 0 -6 -19 -2 -44 4 -25 3 -51 -2 -60 -5 -8 -4 -17
1 -20 8 -5 4 -75 -4 -84 -2 -2 1 -16 5 -32 5 -16 5 -45 0 -64 -4 -20 -5 -36
-1 -36 3 0 6 -14 7 -30 1 -17 -2 -30 -6 -30 -5 0 -5 -15 -1 -33 5 -18 5 -41 1
-52 -4 -11 -3 -31 2 -44 5 -13 5 -27 1 -30 -9 -7 -10 -32 -2 -46 4 -5 5 -19 3
-30 -2 -11 -4 -36 -4 -55 1 -80 0 -138 0 -183 -1 -26 2 -57 5 -67 4 -11 2 -20
-3 -20 -5 0 -6 -19 -2 -44 4 -25 3 -51 -2 -60 -5 -8 -4 -17 1 -20 8 -5 4 -75
-4 -84 -2 -2 1 -16 5 -32 5 -16 5 -45 0 -64 -4 -20 -5 -36 -1 -36 3 0 6 -14 7
-30 1 -17 -2 -30 -6 -30 -5 0 -5 -15 -1 -33 5 -18 5 -41 1 -52 -4 -11 -3 -31
2 -44 5 -13 5 -27 1 -30 -9 -7 -10 -32 -2 -46 4 -5 5 -19 3 -30 -2 -11 -4 -36
-4 -55 1 -80 0 -138 0 -183 -1 -26 2 -57 5 -67 4 -12 2 -20 -5 -20 -6 0 -9 -4
-6 -8 3 -5 8 -30 11 -55 31 -225 319 -312 473 -142 32 35 59 86 68 129 3 12 5
673 5 1471 0 988 4 1454 11 1462 6 7 18 13 27 13 10 0 439 -211 954 -469 515
-257 937 -466 937 -463 0 2 7 -1 15 -8 17 -14 1265 -639 1265 -634 0 3 17 -6
37 -19 93 -57 373 -185 373 -170 0 3 7 0 15 -7 8 -7 15 -9 15 -5 0 4 6 3 13
-2 6 -5 30 -11 52 -13 57 -6 244 -4 280 3 92 17 129 30 243 83 51 24 95 43 99
43 3 -1 9 3 12 8 7 10 218 114 227 112 4 0 10 3 13 8 8 11 133 74 145 72 5 0
12 3 15 8 5 7 317 166 331 168 3 0 14 6 25 13 40 24 1865 933 1871 932 4 -1
10 2 13 7 7 10 378 195 387 193 4 -1 10 2 13 7 3 4 66 38 139 74 126 64 133
66 153 50 l21 -16 0 -1463 c0 -886 3 -1464 9 -1468 5 -3 7 -9 4 -14 -7 -11 53
-107 81 -132 42 -37 127 -65 187 -63 57 3 128 27 155 52 7 7 16 13 20 13 4 0
18 17 32 38 14 20 28 39 31 42 21 18 42 186 28 226 -4 12 -5 25 -1 28 9 10 9
96 -1 96 -5 0 -5 5 -1 11 10 16 12 80 3 105 -4 12 -5 25 -1 28 9 10 9 96 -1
96 -5 0 -5 5 -1 11 10 16 12 80 3 105 -4 12 -5 25 -1 28 9 10 9 96 -1 96 -5 0
-5 5 -1 11 10 16 12 80 3 105 -4 12 -5 25 -1 28 9 10 9 96 -1 96 -5 0 -5 5 -1
11 10 16 12 80 3 105 -4 12 -5 25 -1 28 9 10 9 96 -1 96 -5 0 -5 5 -1 11 10
16 12 80 3 105 -4 12 -5 25 -1 28 9 10 9 96 -1 96 -5 0 -5 5 -1 11 10 16 12
80 3 105 -4 12 -5 25 -1 28 9 10 9 96 -1 96 -5 0 -5 5 -1 11 10 16 12 80 3
105 -4 12 -5 25 -1 28 9 10 9 96 -1 96 -5 0 -5 5 -1 11 10 16 12 80 3 105 -4
12 -5 25 -1 28 9 10 9 96 -1 96 -4 0 -4 8 0 18 10 20 9 669 -1 757 -12 113
-66 245 -125 306 -9 9 -25 27 -37 40 -81 93 -214 160 -349 175 -22 3 -48 6
-57 8 -9 2 -18 3 -20 1z"/>
<path d="M456 3843 c-1 -1 -31 -3 -66 -4 -99 -3 -183 -54 -212 -129 -43 -110
2 -223 112 -278 33 -16 218 -17 3410 -19 1856 0 3407 -4 3445 -7 176 -16 268
-36 463 -101 7 -3 13 -4 15 -2 1 1 18 -8 37 -20 19 -12 37 -21 40 -21 11 0 70
-29 150 -76 257 -149 471 -371 598 -621 55 -107 110 -262 127 -355 9 -44 13
-65 15 -65 4 0 12 -143 13 -220 1 -81 -4 -151 -17 -240 -6 -42 -42 -181 -60
-231 -22 -63 -85 -203 -96 -214 -3 -3 -12 -18 -20 -35 -14 -28 -93 -141 -135
-195 -32 -40 -187 -193 -224 -220 -19 -14 -39 -30 -45 -35 -18 -17 -179 -120
-185 -119 -3 1 -17 -6 -31 -15 -56 -38 -296 -131 -379 -146 -14 -3 -37 -7 -51
-11 -37 -8 -70 -14 -115 -19 -22 -2 -62 -7 -90 -10 -94 -12 -6407 -8 -6439 4
-46 18 -85 50 -103 84 -16 30 -17 127 -19 1302 0 942 -4 1281 -13 1312 -13 47
-70 109 -119 130 -80 33 -183 11 -244 -54 -61 -64 -58 20 -58 -1390 1 -1411
-1 -1362 59 -1477 44 -84 54 -97 111 -156 66 -68 151 -122 251 -158 l74 -27
3260 0 c1793 0 3289 3 3325 7 36 4 76 9 90 12 14 3 41 8 60 10 52 8 64 11 78
19 6 5 12 6 12 3 0 -2 39 6 88 20 48 13 95 26 105 29 51 12 321 129 337 145 3
3 16 11 30 18 54 26 163 96 194 124 11 10 23 18 27 18 4 0 14 6 21 13 7 6 36
30 63 52 51 40 211 198 252 248 37 44 128 169 155 212 45 73 130 228 133 245
0 3 16 43 34 90 18 46 35 91 37 100 2 8 10 40 19 70 31 109 51 227 59 351 2
25 6 51 10 57 3 6 2 13 -3 16 -5 3 -6 21 -1 40 4 19 5 37 3 40 -3 3 -7 42 -9
88 -3 71 -18 200 -30 248 -3 16 -41 164 -48 190 -13 45 -52 146 -60 151 -5 4
-5 12 -2 18 4 6 3 11 -2 11 -8 0 -18 22 -21 43 0 1 -18 35 -40 76 -23 41 -41
78 -41 82 0 5 -3 9 -8 9 -4 0 -19 21 -32 48 -14 26 -27 49 -31 52 -3 3 -18 23
-35 45 -16 22 -33 45 -39 51 -5 7 -23 29 -40 50 -43 54 -180 191 -250 251
-241 204 -598 378 -890 434 -22 4 -53 10 -70 13 -76 15 -161 26 -250 31 -75 5
-373 8 -390 5 -5 -1 -14 -2 -20 -1 -27 5 -767 1 -776 -4 -5 -4 -9 -3 -9 2 0 7
-91 8 -220 3 -14 0 -254 0 -533 0 -279 0 -512 -2 -517 -5 -6 -4 -10 -3 -10 2
0 7 -97 8 -220 3 -14 -1 -219 -1 -456 0 -237 1 -435 0 -440 -1 -5 -1 -13 -1
-19 0 -27 5 -767 1 -776 -4 -5 -4 -9 -3 -9 2 0 7 -97 8 -220 3 -14 -1 -219 -1
-456 0 -237 1 -435 0 -440 -1 -5 -1 -13 -1 -19 0 -27 5 -767 1 -776 -4 -5 -4
-9 -3 -9 2 0 4 -44 7 -97 6 -145 -4 -153 -4 -216 -1 -32 2 -60 2 -61 1z"/>
</g>
</svg>
