<svg width="24" height="25" viewBox="0 0 24 25" fill="none" xmlns="http://www.w3.org/2000/svg">
<path d="M4.5 8C2.84314 8 1.5 9.34314 1.5 11V11.75H0.75C0.335787 11.75 0 12.0858 0 12.5C0 12.9142 0.335787 13.25 0.75 13.25H1.5V14C1.5 15.6569 2.84314 17 4.5 17H6C8.48528 17 10.5 14.9853 10.5 12.5C10.5 11.6716 11.1716 11 12 11C12.8284 11 13.5 11.6716 13.5 12.5C13.5 14.9853 15.5147 17 18 17H19.5C21.1569 17 22.5 15.6569 22.5 14V13.25H23.25C23.6642 13.25 24 12.9142 24 12.5C24 12.0858 23.6642 11.75 23.25 11.75H22.5V11C22.5 9.34314 21.1569 8 19.5 8H16.5C15.1914 8 14.0785 8.83786 13.6684 10.0064C13.1914 9.68656 12.6175 9.5 12 9.5C11.3825 9.5 10.8086 9.68656 10.3316 10.0064C9.92151 8.83786 8.8086 8 7.5 8H4.5ZM4.5 9.5H5.91147C6.30719 9.5 6.43311 10.0334 6.07919 10.2104L5.39442 10.5528C4.81385 10.8431 4.34308 11.3138 4.05279 11.8944L3.71041 12.5792C3.53344 12.9331 3 12.8072 3 12.4115V11C3 10.1716 3.67158 9.5 4.5 9.5Z" fill="black"/>
</svg>
