<svg width="104" height="104" viewBox="0 0 104 104" fill="none" xmlns="http://www.w3.org/2000/svg">
<g clip-path="url(#clip0_1167_113903)">
<path fill-rule="evenodd" clip-rule="evenodd" d="M91 29.25V71.5H84.5V29.25H71.5C68.9141 29.25 66.4342 28.2228 64.6057 26.3943C62.7772 24.5658 61.75 22.0859 61.75 19.5V6.5H26C24.2761 6.5 22.6228 7.18482 21.4038 8.40381C20.1848 9.62279 19.5 11.2761 19.5 13V71.5H13V13C13 9.55219 14.3696 6.24559 16.8076 3.80761C19.2456 1.36964 22.5522 0 26 0L61.75 0L91 29.25ZM46.5465 92.222V88.829C46.5931 87.4018 46.3338 85.9812 45.786 84.6625C45.3545 83.6342 44.6257 82.7583 43.693 82.147C42.7784 81.5807 41.7201 81.2896 40.6445 81.3085C39.5641 81.2912 38.5015 81.5845 37.583 82.1535C36.6579 82.767 35.9344 83.6398 35.503 84.6625C34.9552 85.9812 34.6959 87.4018 34.7425 88.829V92.222C34.7425 93.886 35.0025 95.277 35.503 96.3885C35.9333 97.4136 36.657 98.2888 37.583 98.904C38.5064 99.4589 39.5674 99.7428 40.6445 99.723C41.7175 99.7424 42.7742 99.4585 43.693 98.904C44.6247 98.2945 45.3534 97.4209 45.786 96.395C46.3328 95.0737 46.592 93.6512 46.5465 92.222ZM51.766 88.868V92.2025C51.766 94.64 51.324 96.7525 50.4335 98.527C49.5923 100.237 48.259 101.656 46.605 102.603C44.954 103.539 42.965 104.007 40.6445 104.007C38.5635 104.061 36.5037 103.578 34.6645 102.603C33.0087 101.658 31.6749 100.238 30.836 98.527C29.904 96.5519 29.4476 94.3858 29.5035 92.2025V88.868C29.5035 86.4045 29.952 84.292 30.836 82.5305C31.7265 80.7495 33.0005 79.391 34.671 78.455C36.3415 77.4995 38.337 77.025 40.651 77.025C42.9715 77.025 44.954 77.4995 46.605 78.455C48.269 79.404 49.543 80.769 50.44 82.55C51.324 84.3115 51.766 86.4175 51.766 88.868ZM6.5 103.513V77.519H15.9835C18.6225 77.519 20.8 78.026 22.516 79.0465C24.232 80.0605 25.506 81.5295 26.3445 83.4665C27.1895 85.3905 27.6185 87.724 27.6185 90.4475C27.6185 93.1905 27.196 95.5435 26.3445 97.4935C25.493 99.45 24.1995 100.939 22.477 101.972C20.761 102.999 18.5965 103.513 15.9835 103.513H6.5ZM15.301 81.7115H11.635V99.307H15.2945C16.497 99.307 17.5435 99.125 18.434 98.774C19.2902 98.4303 20.0395 97.8649 20.605 97.136C21.177 96.395 21.5995 95.485 21.879 94.393C22.1926 93.1349 22.3412 91.8414 22.321 90.545C22.321 88.595 22.061 86.957 21.554 85.6505C21.1351 84.4391 20.3257 83.4011 19.253 82.6995C18.226 82.0365 16.9065 81.7115 15.288 81.7115H15.301ZM59.215 88.9655C59.215 87.3535 59.436 85.9755 59.8845 84.851C60.2694 83.8158 60.9497 82.9163 61.841 82.264C62.7522 81.652 63.8312 81.3385 64.9285 81.367C65.9035 81.367 66.768 81.575 67.5155 81.9975C68.2504 82.388 68.8642 82.9725 69.29 83.6875C69.743 84.4393 70.0104 85.2883 70.07 86.164H75.0425V85.6895C74.9994 84.4922 74.7078 83.3169 74.1864 82.2382C73.665 81.1596 72.925 80.201 72.0135 79.4235C71.0779 78.6313 69.9957 78.0306 68.8285 77.6555C67.5602 77.2258 66.2286 77.0127 64.8895 77.025C62.582 77.025 60.5995 77.506 58.968 78.4745C57.343 79.4365 56.108 80.808 55.2565 82.589C54.405 84.3635 53.976 86.489 53.976 88.946V92.183C53.976 94.6465 54.3985 96.759 55.237 98.527C56.082 100.289 57.3235 101.647 58.9485 102.603C60.5735 103.539 62.556 104.007 64.8895 104.007C66.794 104.007 68.497 103.656 69.992 102.941C71.487 102.226 72.683 101.251 73.5735 99.9895C74.4702 98.6988 74.9799 97.1789 75.0425 95.6085V95.1145H70.07C70.0114 95.9531 69.7505 96.7649 69.3095 97.4805C68.873 98.167 68.2601 98.7237 67.535 99.0925C66.7239 99.4874 65.8304 99.6835 64.9285 99.6645C63.831 99.6976 62.7488 99.401 61.8215 98.813C60.9331 98.1763 60.2579 97.2858 59.8845 96.2585C59.4072 94.9542 59.18 93.5715 59.215 92.183V88.9655ZM92.313 77.5255H98.124L89.8365 90.5645L97.9875 103.513H92.0855L86.5605 94.315H86.333L80.795 103.513H75.192L83.252 90.415L75.27 77.519H81.328L86.736 86.8725H86.9635L92.313 77.519V77.5255Z" fill="#FA1476"/>
</g>
<defs>
<clipPath id="clip0_1167_113903">
<rect width="104" height="104" fill="white"/>
</clipPath>
</defs>
</svg>
