<svg width="20" height="20" viewBox="0 0 20 20" fill="none" xmlns="http://www.w3.org/2000/svg">
<path d="M3.75 18.125C3.25272 18.125 2.77581 17.9275 2.42417 17.5758C2.07254 17.2242 1.875 16.7473 1.875 16.25V3.75C1.875 3.25272 2.07254 2.77581 2.42417 2.42417C2.77581 2.07254 3.25272 1.875 3.75 1.875H13.75C13.9158 1.875 14.0747 1.94085 14.1919 2.05806C14.3092 2.17527 14.375 2.33424 14.375 2.5C14.375 2.66576 14.3092 2.82473 14.1919 2.94194C14.0747 3.05915 13.9158 3.125 13.75 3.125H3.75C3.58424 3.125 3.42527 3.19085 3.30806 3.30806C3.19085 3.42527 3.125 3.58424 3.125 3.75V16.25C3.125 16.4158 3.19085 16.5747 3.30806 16.6919C3.42527 16.8092 3.58424 16.875 3.75 16.875H16.25C16.4158 16.875 16.5747 16.8092 16.6919 16.6919C16.8092 16.5747 16.875 16.4158 16.875 16.25V10C16.875 9.83424 16.9408 9.67527 17.0581 9.55806C17.1753 9.44085 17.3342 9.375 17.5 9.375C17.6658 9.375 17.8247 9.44085 17.9419 9.55806C18.0592 9.67527 18.125 9.83424 18.125 10V16.25C18.125 16.7473 17.9275 17.2242 17.5758 17.5758C17.2242 17.9275 16.7473 18.125 16.25 18.125H3.75Z" fill="#525252"/>
<path d="M10.4425 12.9425L19.1925 4.1925C19.2506 4.13439 19.2967 4.0654 19.3282 3.98948C19.3596 3.91355 19.3758 3.83218 19.3758 3.75C19.3758 3.66782 19.3596 3.58644 19.3282 3.51052C19.2967 3.43459 19.2506 3.36561 19.1925 3.3075C19.1344 3.24939 19.0654 3.20329 18.9895 3.17184C18.9136 3.14039 18.8322 3.12421 18.75 3.12421C18.6678 3.12421 18.5864 3.14039 18.5105 3.17184C18.4346 3.20329 18.3656 3.24939 18.3075 3.3075L10 11.6162L6.6925 8.3075C6.63439 8.24939 6.5654 8.20329 6.48948 8.17184C6.41355 8.14039 6.33218 8.12421 6.25 8.12421C6.16782 8.12421 6.08644 8.14039 6.01052 8.17184C5.93459 8.20329 5.86561 8.24939 5.8075 8.3075C5.74939 8.36561 5.70329 8.43459 5.67184 8.51052C5.64039 8.58644 5.62421 8.66782 5.62421 8.75C5.62421 8.83218 5.64039 8.91355 5.67184 8.98948C5.70329 9.0654 5.74939 9.13439 5.8075 9.1925L9.5575 12.9425C9.61555 13.0007 9.68452 13.0469 9.76045 13.0784C9.83639 13.1099 9.91779 13.1261 10 13.1261C10.0822 13.1261 10.1636 13.1099 10.2395 13.0784C10.3155 13.0469 10.3844 13.0007 10.4425 12.9425Z" fill="#525252"/>
</svg>
