<svg width="275" height="24" viewBox="0 0 275 24" fill="none" xmlns="http://www.w3.org/2000/svg">
<path fill-rule="evenodd" clip-rule="evenodd" d="M273.744 1.6755C273.744 1.85918 273.596 2.00798 273.412 2.00798H234.79C229.129 2.00798 224.54 6.5975 224.54 12.259C224.54 17.9205 229.129 22.51 234.79 22.51H273.412C273.596 22.51 273.744 22.6588 273.744 22.8424C273.744 23.0261 273.596 23.1749 273.412 23.1749H234.79C228.762 23.1749 223.875 18.2876 223.875 12.259C223.875 6.23015 228.762 1.34302 234.79 1.34302H273.412C273.596 1.34302 273.744 1.49183 273.744 1.6755ZM112.798 2.00798C112.614 2.00798 112.465 1.85918 112.465 1.6755C112.465 1.49183 112.614 1.34302 112.798 1.34302H151.419C157.448 1.34302 162.335 6.23015 162.335 12.259C162.335 18.2876 157.448 23.1749 151.419 23.1749H115.16C113.672 23.1749 112.465 21.9685 112.465 20.4805V4.12157C112.465 3.93814 112.614 3.78909 112.798 3.78909C112.981 3.78909 113.13 3.93814 113.13 4.12157V20.4805C113.13 21.6011 114.039 22.51 115.16 22.51H151.419C157.081 22.51 161.67 17.9205 161.67 12.259C161.67 6.5975 157.081 2.00798 151.419 2.00798H112.798Z" fill="#171733"/>
<path d="M112.798 2.00798C112.614 2.00798 112.465 1.85894 112.465 1.6755C112.465 1.49183 112.614 1.34302 112.798 1.34302H151.419C157.448 1.34302 162.335 6.23015 162.335 12.259C162.335 18.2876 157.448 23.1749 151.419 23.1749H115.16C113.672 23.1749 112.465 21.9685 112.465 20.4805V4.12157C112.465 3.93813 112.614 3.78909 112.798 3.78909C112.981 3.78909 113.13 3.93813 113.13 4.12157V20.4805C113.13 21.6011 114.039 22.51 115.16 22.51H151.419C157.08 22.51 161.67 17.9205 161.67 12.259C161.67 6.5975 157.08 2.00798 151.419 2.00798H112.798Z" stroke="#171733" stroke-miterlimit="10" stroke-linecap="round" stroke-linejoin="round"/>
<path fill-rule="evenodd" clip-rule="evenodd" d="M197.974 1.34302H207.713C213.741 1.34302 218.628 6.23015 218.628 12.259C218.628 18.2876 213.741 23.1749 207.713 23.1749H197.974H178.497C172.468 23.1749 167.581 18.2876 167.581 12.259C167.581 6.23015 172.468 1.34302 178.497 1.34302H197.974ZM197.974 2.00798H207.713C213.374 2.00798 217.963 6.5975 217.963 12.259C217.963 17.9205 213.374 22.51 207.713 22.51H197.974H178.497C172.836 22.51 168.246 17.9205 168.246 12.259C168.246 6.5975 172.836 2.00798 178.497 2.00798H197.974Z" fill="#171733"/>
<path d="M197.974 1.34302H207.713C213.741 1.34302 218.628 6.23015 218.628 12.259C218.628 18.2876 213.741 23.1749 207.713 23.1749H197.974H178.497C172.468 23.1749 167.581 18.2876 167.581 12.259C167.581 6.23015 172.468 1.34302 178.497 1.34302H197.974Z" stroke="#171733" stroke-miterlimit="10" stroke-linecap="round" stroke-linejoin="round"/>
<path d="M197.974 2.008H207.713C213.374 2.008 217.963 6.59752 217.963 12.259C217.963 17.9205 213.374 22.51 207.713 22.51H197.974H178.497C172.836 22.51 168.246 17.9205 168.246 12.259C168.246 6.59752 172.836 2.008 178.497 2.008H197.974Z" stroke="#171733" stroke-miterlimit="10" stroke-linecap="round" stroke-linejoin="round"/>
<path fill-rule="evenodd" clip-rule="evenodd" d="M52.8223 22.4552V4.61562C52.8223 3.92248 52.2603 3.36046 51.5671 3.36046C51.3722 3.36046 51.1802 3.40584 51.0058 3.49302L29.6074 14.1923C29.0332 14.4792 28.4003 14.6287 27.7587 14.6287C27.1169 14.6287 26.484 14.4792 25.91 14.1923L4.51139 3.49302C3.89157 3.18299 3.13752 3.43427 2.82749 4.05432C2.74031 4.22868 2.69493 4.42072 2.69493 4.61562V22.4552C2.69493 22.8526 2.37296 23.175 1.97551 23.175C1.57807 23.175 1.25562 22.8526 1.25562 22.4552V4.61562C1.25562 4.19739 1.35307 3.7849 1.54009 3.41062C2.20577 2.07974 3.82422 1.54018 5.15509 2.20562L26.5537 12.9049C26.9278 13.092 27.3403 13.1894 27.7587 13.1894C28.177 13.1894 28.5895 13.092 28.9637 12.9049L50.3621 2.20562C50.7364 2.0186 51.1489 1.92115 51.5671 1.92115C53.0554 1.92115 54.2616 3.12758 54.2616 4.61562V22.4552C54.2616 22.8526 53.9394 23.175 53.542 23.175C53.1445 23.175 52.8223 22.8526 52.8223 22.4552ZM84.0828 14.2423C83.9128 13.9024 84.0506 13.4889 84.3905 13.3191L108.268 1.38039C108.608 1.21033 109.021 1.34814 109.191 1.68803C109.361 2.02791 109.223 2.44112 108.883 2.61095L85.0058 14.5499C84.6659 14.7197 84.2527 14.5822 84.0828 14.2423ZM57.4431 2.61095C57.1032 2.44112 56.9654 2.02791 57.1355 1.68803C57.3053 1.34814 57.7185 1.21033 58.0584 1.38039L81.6005 13.1514C82.9395 13.8207 83.785 15.1893 83.785 16.6859V22.4869C83.785 22.8669 83.4771 23.175 83.0971 23.175C82.7171 23.175 82.4092 22.8669 82.4092 22.4869V16.6859C82.4092 15.7102 81.8577 14.8184 80.9852 14.382L57.4431 2.61095Z" fill="#FA1476"/>
<path d="M84.083 14.2427C83.9132 13.9028 84.0508 13.4896 84.3906 13.3195L108.268 1.3808C108.608 1.21074 109.021 1.34855 109.191 1.68844C109.361 2.02832 109.223 2.44153 108.884 2.61136L85.0059 14.5503C84.666 14.7204 84.2528 14.5826 84.083 14.2427Z" stroke="#FA1476" stroke-miterlimit="10" stroke-linecap="round" stroke-linejoin="round"/>
<path d="M57.444 2.61095C57.1041 2.44112 56.9663 2.02791 57.1363 1.68803C57.3062 1.34814 57.7194 1.21033 58.0593 1.38039L81.6016 13.1514C82.9403 13.8207 83.7861 15.1893 83.7861 16.6859V22.4869C83.7861 22.8669 83.478 23.175 83.098 23.175C82.718 23.175 82.4101 22.8669 82.4101 22.4869V16.6859C82.4101 15.7102 81.8588 14.8184 80.986 14.382L57.444 2.61095Z" stroke="#FA1476" stroke-miterlimit="10" stroke-linecap="round" stroke-linejoin="round"/>
<path fill-rule="evenodd" clip-rule="evenodd" d="M216.181 12.2591C216.181 7.58146 212.389 3.78923 207.712 3.78923C203.034 3.78923 199.242 7.58146 199.242 12.2591C199.242 16.9368 203.034 20.729 207.712 20.729C212.389 20.729 216.181 16.9368 216.181 12.2591Z" fill="#FA1476"/>
<path d="M199.242 12.2591C199.242 7.58146 203.034 3.78923 207.712 3.78923C212.389 3.78923 216.181 7.58146 216.181 12.2591C216.181 16.9368 212.389 20.729 207.712 20.729C203.034 20.729 199.242 16.9368 199.242 12.2591Z" stroke="#FA1476" stroke-miterlimit="10" stroke-linecap="round" stroke-linejoin="round"/>
<path d="M273.744 1.6755C273.744 1.85918 273.596 2.00798 273.412 2.00798H234.79C229.129 2.00798 224.54 6.5975 224.54 12.259C224.54 17.9205 229.129 22.51 234.79 22.51H273.412C273.596 22.51 273.744 22.6588 273.744 22.8424C273.744 23.0261 273.596 23.1749 273.412 23.1749H234.79C228.762 23.1749 223.875 18.2876 223.875 12.259C223.875 6.23015 228.762 1.34302 234.79 1.34302H273.412C273.596 1.34302 273.744 1.49183 273.744 1.6755Z" stroke="#171733" stroke-miterlimit="10" stroke-linecap="round" stroke-linejoin="round"/>
<path d="M2.69493 22.4552C2.69493 22.8526 2.37272 23.175 1.97527 23.175C1.57782 23.175 1.25562 22.8526 1.25562 22.4552V4.61562C1.25562 4.19739 1.35307 3.78489 1.54009 3.41061C2.20576 2.07974 3.82422 1.54017 5.15509 2.20561L26.5537 12.9049C26.9278 13.092 27.3403 13.1894 27.7587 13.1894" stroke="#FA1476" stroke-miterlimit="10" stroke-linecap="round" stroke-linejoin="round"/>
<path d="M2.6958 22.4557V4.61615C2.6958 4.42125 2.74118 4.22922 2.82836 4.05486C3.13839 3.4348 3.89221 3.18353 4.51226 3.49356L25.9109 14.1929C26.4849 14.4797 27.1178 14.6293 27.7596 14.6293" stroke="#FA1476" stroke-miterlimit="10" stroke-linecap="round" stroke-linejoin="round"/>
<path d="M52.8231 22.4552C52.8231 22.8526 53.1453 23.175 53.5428 23.175C53.9402 23.175 54.2624 22.8526 54.2624 22.4552V4.61561C54.2624 3.12757 53.0562 1.92114 51.568 1.92114C51.1497 1.92114 50.7372 2.01859 50.3629 2.20561L28.9645 12.9049C28.5902 13.092 28.1777 13.1894 27.7595 13.1894" stroke="#FA1476" stroke-miterlimit="10" stroke-linecap="round" stroke-linejoin="round"/>
<path d="M52.8231 22.4557V4.61615C52.8231 3.923 52.2611 3.36099 51.5679 3.36099C51.373 3.36099 51.181 3.40637 51.0066 3.49355L29.6082 14.1929C29.034 14.4797 28.4011 14.6293 27.7595 14.6293" stroke="#FA1476" stroke-miterlimit="10" stroke-linecap="round" stroke-linejoin="round"/>
</svg>
