<svg width="320" height="320" viewBox="0 0 320 320" fill="none" xmlns="http://www.w3.org/2000/svg">
<rect width="320" height="320" fill="#F5F5F5"/>
<path d="M135.342 149.871C135.159 149.871 135.01 149.722 135.01 149.539C135.01 149.356 135.159 149.207 135.342 149.207H173.894C179.912 149.207 184.79 154.086 184.79 160.104C184.79 166.121 179.912 171 173.894 171H137.7C136.215 171 135.01 169.796 135.01 168.31V152.979C135.01 152.796 135.159 152.647 135.342 152.647C135.525 152.647 135.674 152.796 135.674 152.979V168.31C135.674 169.429 136.581 170.336 137.7 170.336H173.894C179.545 170.336 184.127 165.755 184.127 160.104C184.127 154.452 179.545 149.871 173.894 149.871H135.342Z" stroke="#171733" stroke-width="2" stroke-miterlimit="10" stroke-linecap="round" stroke-linejoin="round"/>
<path fill-rule="evenodd" clip-rule="evenodd" d="M220.366 149.207H230.087C236.105 149.207 240.983 154.086 240.983 160.104C240.983 166.121 236.105 171 230.087 171H220.366H200.924C194.906 171 190.027 166.121 190.027 160.104C190.027 154.086 194.906 149.207 200.924 149.207H220.366ZM220.366 149.871H230.087C235.738 149.871 240.319 154.452 240.319 160.104C240.319 165.755 235.738 170.336 230.087 170.336H220.366H200.924C195.272 170.336 190.691 165.755 190.691 160.104C190.691 154.452 195.272 149.871 200.924 149.871H220.366Z" fill="#171733"/>
<path d="M220.366 149.207H230.087C236.105 149.207 240.983 154.086 240.983 160.104C240.983 166.121 236.105 171 230.087 171H220.366H200.924C194.906 171 190.027 166.121 190.027 160.104C190.027 154.086 194.906 149.207 200.924 149.207H220.366Z" stroke="#171733" stroke-miterlimit="10" stroke-linecap="round" stroke-linejoin="round"/>
<path d="M220.366 149.871H230.087C235.738 149.871 240.319 154.452 240.319 160.104C240.319 165.755 235.738 170.336 230.087 170.336H220.366H200.924C195.272 170.336 190.691 165.755 190.691 160.104C190.691 154.452 195.272 149.871 200.924 149.871H220.366Z" stroke="#171733" stroke-width="2.5" stroke-miterlimit="10" stroke-linecap="round" stroke-linejoin="round"/>
<path fill-rule="evenodd" clip-rule="evenodd" d="M75.4742 170.281V152.474C75.4742 151.782 74.9132 151.221 74.2213 151.221C74.0268 151.221 73.8351 151.266 73.661 151.353L52.301 162.033C51.7278 162.32 51.096 162.469 50.4556 162.469C49.815 162.469 49.1831 162.32 48.6102 162.033L27.2499 151.353C26.6312 151.044 25.8785 151.295 25.5691 151.914C25.482 152.088 25.4367 152.279 25.4367 152.474V170.281C25.4367 170.678 25.1153 171 24.7186 171C24.3219 171 24 170.678 24 170.281V152.474C24 152.056 24.0973 151.645 24.284 151.271C24.9484 149.943 26.564 149.404 27.8925 150.068L49.2528 160.748C49.6261 160.935 50.0379 161.032 50.4556 161.032C50.8731 161.032 51.2848 160.935 51.6584 160.748L73.0185 150.068C73.3921 149.881 73.8038 149.784 74.2213 149.784C75.7069 149.784 76.911 150.988 76.911 152.474V170.281C76.911 170.678 76.5893 171 76.1926 171C75.7958 171 75.4742 170.678 75.4742 170.281ZM106.679 162.083C106.509 161.744 106.647 161.331 106.986 161.162L130.821 149.244C131.16 149.075 131.572 149.212 131.742 149.552C131.912 149.891 131.774 150.303 131.435 150.473L107.6 162.39C107.261 162.56 106.848 162.423 106.679 162.083ZM80.0867 150.473C79.7475 150.303 79.6099 149.891 79.7796 149.552C79.9492 149.212 80.3616 149.075 80.7009 149.244L104.201 160.994C105.537 161.662 106.381 163.029 106.381 164.523V170.313C106.381 170.692 106.074 171 105.695 171C105.315 171 105.008 170.692 105.008 170.313V164.523C105.008 163.549 104.458 162.658 103.587 162.223L80.0867 150.473Z" fill="#FA1476"/>
<path d="M106.679 162.084C106.51 161.744 106.647 161.332 106.986 161.162L130.821 149.245C131.16 149.075 131.573 149.213 131.742 149.552C131.912 149.891 131.774 150.304 131.435 150.473L107.6 162.391C107.261 162.56 106.849 162.423 106.679 162.084Z" stroke="#FA1476" stroke-width="2" stroke-miterlimit="10" stroke-linecap="round" stroke-linejoin="round"/>
<path d="M80.0876 150.473C79.7483 150.303 79.6107 149.891 79.7805 149.552C79.95 149.212 80.3625 149.075 80.7018 149.244L104.202 160.994C105.538 161.662 106.382 163.029 106.382 164.523V170.313C106.382 170.692 106.075 171 105.696 171C105.316 171 105.009 170.692 105.009 170.313V164.523C105.009 163.549 104.459 162.658 103.587 162.223L80.0876 150.473Z" stroke="#FA1476" stroke-width="2" stroke-miterlimit="10" stroke-linecap="round" stroke-linejoin="round"/>
<path fill-rule="evenodd" clip-rule="evenodd" d="M237.541 160.104C237.541 155.986 234.202 152.648 230.084 152.648C225.966 152.648 222.628 155.986 222.628 160.104C222.628 164.222 225.966 167.561 230.084 167.561C234.202 167.561 237.541 164.222 237.541 160.104Z" fill="#FA1476"/>
<path d="M222.628 160.104C222.628 155.986 225.966 152.648 230.084 152.648C234.202 152.648 237.541 155.986 237.541 160.104C237.541 164.222 234.202 167.561 230.084 167.561C225.966 167.561 222.628 164.222 222.628 160.104Z" stroke="#FA1476" stroke-miterlimit="10" stroke-linecap="round" stroke-linejoin="round"/>
<path d="M296 149.539C296 149.722 295.852 149.871 295.668 149.871H257.116C251.465 149.871 246.884 154.452 246.884 160.104C246.884 165.755 251.465 170.336 257.116 170.336H295.668C295.852 170.336 296 170.485 296 170.668C296 170.851 295.852 171 295.668 171H257.116C251.098 171 246.22 166.121 246.22 160.104C246.22 154.086 251.098 149.207 257.116 149.207H295.668C295.852 149.207 296 149.356 296 149.539Z" stroke="#171733" stroke-width="2" stroke-miterlimit="10" stroke-linecap="round" stroke-linejoin="round"/>
<path d="M25.4367 170.281C25.4367 170.678 25.1151 171 24.7184 171C24.3216 171 24 170.678 24 170.281V152.474C24 152.056 24.0973 151.645 24.284 151.271C24.9484 149.943 26.564 149.404 27.8925 150.068L49.2528 160.748C49.6261 160.935 50.0379 161.032 50.4556 161.032" stroke="#FA1476" stroke-width="2" stroke-miterlimit="10" stroke-linecap="round" stroke-linejoin="round"/>
<path d="M25.4375 170.282V152.474C25.4375 152.28 25.4828 152.088 25.5698 151.914C25.8793 151.295 26.6318 151.044 27.2507 151.354L48.611 162.034C49.1839 162.32 49.8157 162.47 50.4564 162.47" stroke="#FA1476" stroke-width="2" stroke-miterlimit="10" stroke-linecap="round" stroke-linejoin="round"/>
<path d="M75.475 170.281C75.475 170.678 75.7966 171 76.1933 171C76.5901 171 76.9117 170.678 76.9117 170.281V152.474C76.9117 150.988 75.7077 149.784 74.222 149.784C73.8046 149.784 73.3928 149.881 73.0192 150.068L51.6591 160.748C51.2855 160.935 50.8738 161.032 50.4563 161.032" stroke="#FA1476" stroke-width="2" stroke-miterlimit="10" stroke-linecap="round" stroke-linejoin="round"/>
<path d="M75.4749 170.282V152.474C75.4749 151.783 74.9139 151.222 74.222 151.222C74.0275 151.222 73.8358 151.267 73.6617 151.354L52.3017 162.034C51.7285 162.32 51.0967 162.47 50.4563 162.47" stroke="#FA1476" stroke-width="2" stroke-miterlimit="10" stroke-linecap="round" stroke-linejoin="round"/>
</svg>
