<svg width="264" height="76" viewBox="0 0 264 76" fill="none" xmlns="http://www.w3.org/2000/svg">
<g clip-path="url(#clip0_1551_46319)">
<mask id="mask0_1551_46319" style="mask-type:luminance" maskUnits="userSpaceOnUse" x="0" y="0" width="264" height="76">
<path d="M263.902 0H0V75.8802H263.902V0Z" fill="white"/>
</mask>
<g mask="url(#mask0_1551_46319)">
<path d="M195.253 43.1308C198.734 43.1724 202.14 42.1252 204.995 40.1359L210.449 47.2943C209.047 48.2862 207.54 49.1217 205.956 49.7855C202.408 51.2361 198.602 51.9622 194.769 51.9209C190.028 51.9822 185.347 50.8434 181.164 48.6103C177.209 46.4926 173.91 43.3289 171.629 39.4644C169.351 35.4473 168.152 30.9078 168.152 26.2895C168.152 21.6711 169.351 17.1317 171.629 13.1145C173.945 9.25377 177.266 6.09483 181.239 3.9753C185.421 1.74261 190.102 0.60599 194.843 0.671503C198.664 0.629336 202.453 1.35313 205.99 2.80017C207.458 3.4209 208.859 4.18807 210.174 5.09L204.391 11.9797C201.655 10.27 198.485 9.37991 195.259 9.41451C192.172 9.36905 189.122 10.1133 186.402 11.5768C183.853 12.9675 181.744 15.042 180.312 17.5666C178.875 20.246 178.123 23.239 178.123 26.2794C178.123 29.3198 178.875 32.313 180.312 34.9922C181.744 37.5169 183.853 39.5913 186.402 40.982C189.121 42.4397 192.167 43.1793 195.253 43.1308Z" fill="#009639"/>
<path fill-rule="evenodd" clip-rule="evenodd" d="M125.162 9.67646C123.357 6.92746 120.774 4.77893 117.742 3.50531C114.183 2.01687 110.351 1.28948 106.494 1.3699H89.082V51.2024H98.9531V37.0403H106.494C110.356 37.1232 114.192 36.3958 117.755 34.9049C120.786 33.6283 123.365 31.4745 125.162 28.7204C126.852 25.8366 127.743 22.5545 127.743 19.2118C127.743 15.8693 126.852 12.587 125.162 9.7033V9.67646ZM117.809 19.232C117.809 22.2269 116.815 24.5571 114.861 26.1552C112.907 27.7534 109.926 28.5928 106.058 28.5928H98.9531V9.83761H106.058C109.926 9.83761 112.887 10.6636 114.861 12.2752C116.835 13.8868 117.809 16.2035 117.809 19.2052V19.232Z" fill="#009639"/>
<path d="M142.219 42.8018V30.0297H162.74V21.7702H142.219V9.77042H165.754V1.36987H132.348V51.2024H166.736V42.8018H142.219Z" fill="#009639"/>
<path fill-rule="evenodd" clip-rule="evenodd" d="M260.048 13.1213C257.738 9.25336 254.415 6.09062 250.438 3.97535C246.195 1.80364 241.497 0.671143 236.729 0.671143C231.963 0.671143 227.264 1.80364 223.021 3.97535C219.041 6.09939 215.719 9.2744 213.418 13.1548C211.135 17.152 209.934 21.6759 209.934 26.2794C209.934 30.883 211.135 35.4069 213.418 39.404C215.716 43.288 219.039 46.4658 223.021 48.5903C227.264 50.762 231.963 51.8945 236.729 51.8945C241.497 51.8945 246.195 50.762 250.438 48.5903C254.411 46.4779 257.733 43.3231 260.048 39.4644C262.335 35.4567 263.54 30.9214 263.54 26.3063C263.54 21.6912 262.335 17.1559 260.048 13.1481V13.1213ZM253.595 26.3096C253.634 29.3439 252.877 32.3356 251.399 34.9856C249.984 37.522 247.891 39.6147 245.355 41.0291C242.695 42.4487 239.725 43.1914 236.71 43.1914C233.694 43.1914 230.725 42.4487 228.064 41.0291C225.53 39.6111 223.439 37.5193 222.021 34.9856C220.584 32.3182 219.831 29.336 219.831 26.3063C219.831 23.2766 220.584 20.2944 222.021 17.627C223.439 15.0933 225.53 13.0015 228.064 11.5835C230.726 10.1684 233.695 9.42842 236.71 9.42842C239.725 9.42842 242.693 10.1684 245.355 11.5835C247.891 12.9978 249.984 15.0905 251.399 17.627C252.879 20.2792 253.634 23.2731 253.595 26.3096Z" fill="#009639"/>
<path d="M92.2448 66.7746H97.3952L97.4086 64.2296H89.082V75.5848H92.2448V66.7746Z" fill="#009639"/>
<path fill-rule="evenodd" clip-rule="evenodd" d="M117.112 73.3755H112.311L111.418 75.5779H108.141L113.157 64.2228H116.32L121.349 75.5779H117.992L117.112 73.3755ZM116.172 71.005L114.715 67.3721L113.251 71.0251L116.172 71.005Z" fill="#009639"/>
<path fill-rule="evenodd" clip-rule="evenodd" d="M142.849 66.2257C142.419 65.5696 141.808 65.0533 141.089 64.7398H141.095C140.247 64.378 139.331 64.2017 138.409 64.2228H133.219V75.6048H136.422V72.6436H138.403C139.325 72.6646 140.241 72.4883 141.089 72.1265C141.808 71.813 142.419 71.2967 142.849 70.6406C143.279 69.9846 143.507 69.2174 143.507 68.4332C143.507 67.6489 143.279 66.8817 142.849 66.2257ZM140.098 69.129C140.011 69.3409 139.876 69.5299 139.705 69.6822C139.276 69.9993 138.747 70.1518 138.215 70.112H136.428V66.788H138.215C138.748 66.75 139.277 66.905 139.705 67.2244C139.876 67.3802 140.009 67.5719 140.096 67.7856C140.183 67.9992 140.222 68.2295 140.209 68.46C140.223 68.6886 140.185 68.9174 140.098 69.129Z" fill="#009639"/>
<path fill-rule="evenodd" clip-rule="evenodd" d="M163.772 73.3755H158.971L158.078 75.5779H154.801L159.816 64.2228H162.98L168.01 75.5779H164.652L163.772 73.3755ZM162.833 71.0251L161.369 67.3924L159.911 71.0251H162.833Z" fill="#009639"/>
<path d="M191.969 75.5848V64.2296H188.758V68.4936H184.375V64.2296H181.164V75.5848H184.375V71.1529H188.758V75.5848H191.969Z" fill="#009639"/>
<path d="M215.224 66.7746H211.753V75.5848H208.59V66.7746H205.098V64.2296H215.224V66.7746Z" fill="#009639"/>
<path d="M230.959 64.2296H227.797V75.5848H230.832L235.505 68.9301V75.5848H238.668V64.2296H235.654L230.959 70.8976V64.2296Z" fill="#009639"/>
<path fill-rule="evenodd" clip-rule="evenodd" d="M259.827 64.2229V75.5782H256.657V72.7242H254.898L253.031 75.5782H249.673L251.976 72.2542C251.263 71.9565 250.658 71.451 250.238 70.8038C249.839 70.1087 249.629 69.3216 249.629 68.5206C249.629 67.7196 249.839 66.9325 250.238 66.2375C250.663 65.5739 251.278 65.0543 252.003 64.7468C252.851 64.3835 253.768 64.205 254.689 64.2229H259.827ZM252.882 68.4937C252.866 68.7327 252.901 68.9727 252.983 69.1973C253.067 69.422 253.198 69.6262 253.366 69.7965C253.753 70.1164 254.248 70.2751 254.749 70.2397H256.664V66.7546H254.784C253.521 66.7546 252.882 67.3321 252.882 68.4937Z" fill="#009639"/>
<path fill-rule="evenodd" clip-rule="evenodd" d="M73.718 46.8779L74.2619 51.4508H61.0668C58.8075 57.5095 54.9539 62.8456 49.9131 66.8956C44.4001 71.2402 37.3693 74 28.6935 75.0274L24.1206 75.5714V62.3963C18.0622 60.1331 12.7266 56.2775 8.67586 51.2359C4.33121 45.7229 1.57132 38.6921 0.543919 30.0163L0 25.4434H13.1884C15.4442 19.3828 19.2984 14.0459 24.3421 9.99874C29.8552 5.65409 36.8859 2.8942 45.5616 1.86008L50.1347 1.31616V14.4978C56.1952 16.7536 61.5321 20.6078 65.5793 25.6515C69.9239 31.1713 72.6906 38.1953 73.718 46.8779ZM32.3196 66.1233C36.8798 65.2037 41.1729 63.2639 44.8768 60.4491L44.8432 60.4826C47.8886 58.047 50.366 54.9762 52.1022 51.4844H37.6312V43.2921H64.8004C63.8809 38.7318 61.941 34.4387 59.1262 30.7348C56.6928 27.6786 53.622 25.1899 50.1279 23.4423V37.8998H41.9423V10.7508C37.3816 11.669 33.0882 13.609 29.3851 16.4251C26.3377 18.8588 23.8601 21.93 22.1262 25.4232H36.5904V33.6224H9.43466C10.3464 38.1839 12.2845 42.4781 15.1022 46.1795C17.5413 49.2208 20.6143 51.6934 24.1071 53.4251V38.9675H32.3196V66.1233Z" fill="#009639"/>
</g>
</g>
<defs>
<clipPath id="clip0_1551_46319">
<rect width="264" height="75.8802" fill="white"/>
</clipPath>
</defs>
</svg>
