<svg width="264" height="46" viewBox="0 0 264 46" fill="none" xmlns="http://www.w3.org/2000/svg">
<g clip-path="url(#clip0_1551_46367)">
<path d="M22.6857 44.6763V16.8653H28.3323V27.8234H39.5013V16.8653H45.1479V44.6763H39.5013V33.1969H28.3323V44.6763H22.6857ZM49.0695 16.8653H66.1334V22.2388H54.7037V27.6869H63.9244V33.0604H54.7161V39.2655H66.1334V44.6763H49.0695V16.8653ZM76.6324 22.2388H75.3913V30.5536H75.9498C78.618 30.5536 81.4971 29.4615 81.4971 26.359C81.4971 23.6288 79.164 22.2388 76.6696 22.2388H76.6324ZM69.7199 44.6763V16.8653H76.6324C82.2417 16.8653 87.0941 20.4518 87.0941 26.3962C87.0941 32.4523 81.9066 35.9892 76.3345 35.9892H75.3541V44.6763H69.7199ZM95.6198 22.2388V44.6763H89.9856V16.8653H104.344V22.2388H95.6198ZM109.705 30.8142C109.7 32.0227 109.934 33.2203 110.394 34.3381C110.853 35.4559 111.529 36.4719 112.383 37.3276C113.236 38.1833 114.25 38.8619 115.367 39.3244C116.483 39.7869 117.68 40.0241 118.889 40.0225C120.101 40.0237 121.301 39.7841 122.419 39.3175C123.538 38.851 124.552 38.1668 125.404 37.3047C127.112 35.5759 128.07 33.2443 128.072 30.8142C128.085 28.4314 127.198 26.1315 125.59 24.3734C124.74 23.4634 123.709 22.7407 122.564 22.2513C121.419 21.762 120.184 21.5168 118.938 21.5314C117.691 21.5166 116.454 21.7617 115.307 22.2509C114.16 22.7402 113.127 23.463 112.274 24.3734C110.67 26.1341 109.784 28.4323 109.792 30.8142M104.158 30.8142C104.136 28.7908 104.549 26.7862 105.369 24.9363C106.189 23.0864 107.397 21.4343 108.911 20.0919C111.654 17.6174 115.195 16.2123 118.889 16.1331C122.602 16.1709 126.177 17.5506 128.953 20.0174C130.468 21.3598 131.676 23.0119 132.496 24.8618C133.316 26.7118 133.729 28.7163 133.706 30.7397C133.717 32.7124 133.319 34.666 132.537 36.4772C131.755 38.2884 130.607 39.9181 129.164 41.2635C126.382 43.8811 122.709 45.3448 118.889 45.3588C115.068 45.3448 111.396 43.8811 108.613 41.2635C107.169 39.919 106.02 38.2896 105.238 36.4781C104.456 34.6667 104.059 32.7127 104.071 30.7397M141.661 22.1892V44.6763H136.015V16.8653H151.54V22.2388L141.661 22.1892ZM163.429 31.2486L161.095 26.3714L158.738 31.2486H163.429ZM165.799 36.3863H156.367L152.371 44.6763H146.303L161.195 14.7307L175.938 44.6763H169.733L165.799 36.3863ZM183.806 22.1023H182.565V30.4171H183.123C185.792 30.4171 188.658 29.3374 188.658 26.2225C188.658 23.4922 186.338 22.1023 183.843 22.1023H183.806ZM176.894 44.6763V16.7784H183.818C189.415 16.7784 194.28 20.3773 194.28 26.3093C194.28 32.3531 189.105 35.8403 183.508 35.8403C183.185 35.8403 182.863 35.8403 182.54 35.8403V44.6763H176.894ZM207.472 31.323L205.139 26.4458L202.781 31.323H207.472ZM209.842 36.4608H200.398L196.415 44.6763H190.346L205.238 14.7307L220.019 44.6763H213.814L209.842 36.4608ZM220.9 44.6763V16.8653H226.546V27.8234H237.715V16.8653H243.362V44.6763H237.715V33.1969H226.546V44.6763H220.9ZM252.483 44.6763V22.2264H246.7V16.8653H263.975V22.2388H258.13V44.6763H252.483ZM0 24.0755V17.5602C1.98039 16.6158 4.14753 16.1281 6.34156 16.1331C9.88871 16.1498 13.3048 17.4756 15.9346 19.8561C17.4113 21.2467 18.5764 22.9346 19.353 24.8086C20.1295 26.6825 20.4998 28.6998 20.4394 30.7273C20.5012 32.7336 20.151 34.7312 19.4103 36.5968C18.6696 38.4624 17.5543 40.1563 16.1331 41.5738C13.5566 44.0366 10.1292 45.4102 6.56494 45.4085C4.28539 45.4249 2.03481 44.8973 0 43.8696L0 37.404C1.81847 38.9826 4.12135 39.8933 6.52771 39.9853C8.45187 39.949 10.3022 39.2384 11.756 37.9774C13.2098 36.7163 14.1748 34.985 14.4826 33.0853H3.1894V27.8234H14.4826C14.0572 25.9877 13.011 24.3553 11.5208 23.2021C10.0306 22.0489 8.18798 21.4456 6.30433 21.4942C3.95419 21.5368 1.70514 22.4577 0 24.0755Z" fill="#EF4123"/>
<path d="M6.47719 7.94234C5.71565 8.35444 4.86096 8.56384 3.99517 8.55044C3.4469 8.57011 2.9007 8.47305 2.39277 8.26567C1.88485 8.0583 1.42679 7.74535 1.04896 7.34756C0.671121 6.94978 0.382133 6.47624 0.201142 5.95833C0.02015 5.44042 -0.0487121 4.88995 -0.000881896 4.34342C-0.0281848 3.77629 0.0613186 3.2096 0.262078 2.6785C0.462837 2.14739 0.77057 1.6632 1.16619 1.25594C1.56181 0.84868 2.03689 0.527045 2.56195 0.310979C3.08702 0.0949133 3.65087 -0.0109748 4.21855 -0.000118329C4.94329 -0.0207229 5.66243 0.132467 6.31586 0.446645V1.5015C5.68322 1.14636 4.96886 0.962421 4.24337 0.967869C3.82374 0.976649 3.41034 1.07117 3.02859 1.24561C2.64684 1.42006 2.3048 1.67075 2.02351 1.98226C1.74221 2.29377 1.52761 2.65953 1.39289 3.05705C1.25817 3.45456 1.20619 3.87543 1.24013 4.29378C1.19261 4.71152 1.23444 5.13459 1.36286 5.53494C1.49128 5.93529 1.70334 6.30376 1.98499 6.61592C2.26663 6.92807 2.61143 7.17679 2.9965 7.34556C3.38158 7.51434 3.79814 7.59931 4.21855 7.59486C4.91644 7.58717 5.60048 7.39906 6.20417 7.04882L6.47719 7.94234Z" fill="#EF4123"/>
<path d="M10.7826 1.04245H8.375V0.0744629H14.5428L14.1953 1.04245H11.8995V8.42646H10.7826V1.04245Z" fill="#EF4123"/>
<path d="M16.9648 0.0743838H18.6774C19.3089 0.0383667 19.9386 0.171154 20.5017 0.459097C20.9014 0.688797 21.2291 1.02525 21.4483 1.43075C21.6675 1.83626 21.7695 2.29479 21.7427 2.75497C21.7613 3.24916 21.6319 3.73764 21.3709 4.15776C21.11 4.57788 20.7296 4.91047 20.2783 5.11288C19.7491 5.32099 19.1839 5.42222 18.6154 5.41073H18.1438V8.42638H17.0145L16.9648 0.0743838ZM18.6154 4.49238C19.0051 4.50357 19.392 4.42279 19.7447 4.25659C20.011 4.11313 20.2286 3.89382 20.37 3.62647C20.5114 3.35912 20.5702 3.05579 20.5389 2.75497C20.5704 2.46467 20.5238 2.17124 20.4038 1.90504C20.2838 1.63884 20.0948 1.40956 19.8564 1.24093C19.4736 1.0459 19.0431 0.964106 18.6154 1.00514H18.0445V4.49238H18.6154Z" fill="#EF4123"/>
<path d="M26.9771 0H27.8086L31.0228 8.42645H29.7818L29.0247 6.20505H25.7857L24.9915 8.40163H23.8125L26.9771 0ZM28.6648 5.31152L27.883 3.12734C27.6472 2.41997 27.5231 2.03526 27.4114 1.73741L26.9274 3.13975L26.1456 5.31152H28.6648Z" fill="#EF4123"/>
<path d="M35.7139 4.23185L32.9713 0.0744629H34.2744L36.4213 3.37555L38.68 0.0744629H39.9458L37.079 4.19462L39.8713 8.42646H38.5931L36.3717 5.06332L34.0386 8.42646H32.7852L35.7139 4.23185Z" fill="#EF4123"/>
<path d="M42.1953 4.28149C42.1953 3.19534 42.6268 2.15368 43.3948 1.38565C44.1628 0.617629 45.2045 0.186157 46.2906 0.186157C47.3768 0.186157 48.4185 0.617629 49.1865 1.38565C49.9545 2.15368 50.386 3.19534 50.386 4.28149C50.386 5.36764 49.9545 6.4093 49.1865 7.17733C48.4185 7.94535 47.3768 8.37682 46.2906 8.37682C45.2045 8.37682 44.1628 7.94535 43.3948 7.17733C42.6268 6.4093 42.1953 5.36764 42.1953 4.28149ZM49.1946 4.28149C49.241 3.87168 49.2004 3.45668 49.0753 3.06367C48.9503 2.67066 48.7436 2.30849 48.4689 2.00088C48.1941 1.69327 47.8575 1.44715 47.4811 1.27864C47.1047 1.11013 46.6969 1.02302 46.2844 1.02302C45.872 1.02302 45.4642 1.11013 45.0878 1.27864C44.7114 1.44715 44.3748 1.69327 44.1 2.00088C43.8253 2.30849 43.6186 2.67066 43.4936 3.06367C43.3685 3.45668 43.3278 3.87168 43.3743 4.28149C43.3278 4.6913 43.3685 5.1063 43.4936 5.49931C43.6186 5.89232 43.8253 6.25449 44.1 6.5621C44.3748 6.86971 44.7114 7.11583 45.0878 7.28434C45.4642 7.45285 45.872 7.53996 46.2844 7.53996C46.6969 7.53996 47.1047 7.45285 47.4811 7.28434C47.8575 7.11583 48.1941 6.86971 48.4689 6.5621C48.7436 6.25449 48.9503 5.89232 49.0753 5.49931C49.2004 5.1063 49.241 4.6913 49.1946 4.28149Z" fill="#EF4123"/>
<path d="M53.4258 0.0744629H55.5231C57.2853 0.0744629 58.0796 1.06727 58.0796 2.19659C58.095 2.56603 58.0022 2.93194 57.8126 3.24939C57.623 3.56685 57.3449 3.82204 57.0123 3.98364C57.474 4.07953 57.8873 4.33467 58.18 4.70444C58.4726 5.07422 58.626 5.5351 58.6132 6.00649C58.6132 7.3716 57.6328 8.40164 55.7589 8.40164H53.4258V0.0744629ZM55.399 3.72303C56.4166 3.72303 56.9627 3.20181 56.9627 2.37033C56.9627 1.53885 56.5035 1.01763 55.4238 1.01763H54.6047V3.72303H55.399ZM55.6968 7.44606C56.7889 7.44606 57.4715 7.02412 57.4715 5.99408C57.4715 4.96404 56.8261 4.64138 55.8458 4.64138H54.6047V7.44606H55.6968Z" fill="#EF4123"/>
<path d="M63.9111 0H64.755L67.9816 8.37682H66.7406L65.9588 6.20505H62.7322L61.9379 8.40164H60.8086L63.9111 0ZM65.6113 5.26188L64.8295 3.0777C64.5813 2.37033 64.4572 1.98562 64.3579 1.68777C64.271 1.98562 64.1345 2.38274 63.8739 3.09011L63.0921 5.26188H65.6113Z" fill="#EF4123"/>
<path d="M71.1854 5.77069C71.5205 5.15018 71.7315 4.8027 72.079 4.61655C71.6251 4.48591 71.2308 4.20151 70.9637 3.81209C70.6965 3.42266 70.5731 2.95245 70.6146 2.48201C70.6128 2.13409 70.6842 1.78969 70.8242 1.47115C70.9642 1.15262 71.1695 0.867064 71.427 0.633023C71.6844 0.398982 71.9882 0.221682 72.3186 0.112626C72.649 0.00357061 72.9986 -0.0348036 73.3448 -6.52112e-06H75.6158V8.42645H74.4617V4.96403H73.2207C72.9725 4.96403 72.6622 5.23705 72.3023 5.98166L71.0613 8.46368H69.8203L71.1854 5.77069ZM73.4565 4.04569H74.4617V1.00521H73.4689C73.2483 0.974297 73.0236 0.992032 72.8106 1.05717C72.5976 1.12231 72.4015 1.23328 72.2359 1.38228C72.0703 1.53129 71.9394 1.71472 71.8522 1.91971C71.7651 2.1247 71.7239 2.34627 71.7315 2.56888C71.7315 3.59892 72.4637 4.04569 73.4192 4.04569" fill="#EF4123"/>
<path d="M85.4302 0H86.2617L89.4883 8.37682H88.2473L87.4779 6.20505H84.2388L83.4446 8.40164H82.2656L85.4302 0ZM87.118 5.31152L86.3361 3.12734C86.1003 2.41997 85.9762 2.03526 85.8646 1.73741L85.3806 3.13975L84.5987 5.31152H87.118Z" fill="#EF4123"/>
<path d="M92.071 0.0744352H93.1879V3.72301H94.007C95.248 3.72301 95.4093 2.01041 95.9554 0.856272C96.065 0.59663 96.2504 0.376055 96.4872 0.223309C96.7241 0.0705627 97.0015 -0.00726498 97.2832 -2.54081e-05C97.4944 -0.00437469 97.7045 0.0292535 97.9037 0.0992554V1.11688C97.7646 1.06635 97.6175 1.04113 97.4694 1.04242C97.341 1.03721 97.214 1.07123 97.1054 1.13995C96.9967 1.20868 96.9116 1.30885 96.8613 1.42714C96.4518 2.18415 96.2656 3.64854 95.3721 4.16977C95.7816 4.30628 96.0795 4.72822 96.4394 5.41078L98.0403 8.42643H96.7993L95.3721 5.70862C94.9874 4.96402 94.6771 4.7034 94.4165 4.7034H93.1755V8.42643H92.0586L92.071 0.0744352Z" fill="#EF4123"/>
<path d="M100.77 0.0744629H101.874V7.47088H105.833V0.0744629H106.95V7.47088H107.967V10.7596H106.863V8.42646H100.77V0.0744629Z" fill="#EF4123"/>
<path d="M110.711 0.0744617H111.815V5.12537C111.815 5.70865 111.815 6.11818 111.815 6.56494C112.088 6.15541 112.448 5.63419 112.945 5.00127L116.668 0.0372314H117.747V8.42646H116.655V3.1894C116.655 2.5813 116.655 2.19659 116.655 1.79947C116.37 2.209 116.022 2.7054 115.563 3.3135L111.691 8.42646H110.736L110.711 0.0744617Z" fill="#EF4123"/>
<path d="M120.776 4.28144C120.745 3.72384 120.828 3.16584 121.021 2.64153C121.213 2.11723 121.51 1.63763 121.894 1.23205C122.278 0.826469 122.74 0.503419 123.253 0.282642C123.766 0.0618655 124.319 -0.052002 124.877 -0.052002C125.436 -0.052002 125.988 0.0618655 126.501 0.282642C127.014 0.503419 127.477 0.826469 127.861 1.23205C128.244 1.63763 128.542 2.11723 128.734 2.64153C128.926 3.16584 129.009 3.72384 128.979 4.28144C129.009 4.83904 128.926 5.39704 128.734 5.92134C128.542 6.44564 128.244 6.92524 127.861 7.33082C127.477 7.7364 127.014 8.05945 126.501 8.28023C125.988 8.50101 125.436 8.61487 124.877 8.61487C124.319 8.61487 123.766 8.50101 123.253 8.28023C122.74 8.05945 122.278 7.7364 121.894 7.33082C121.51 6.92524 121.213 6.44564 121.021 5.92134C120.828 5.39704 120.745 4.83904 120.776 4.28144ZM127.787 4.28144C127.834 3.87163 127.793 3.45663 127.668 3.06362C127.543 2.67061 127.336 2.30844 127.062 2.00083C126.787 1.69322 126.45 1.4471 126.074 1.27859C125.697 1.11008 125.29 1.02297 124.877 1.02297C124.465 1.02297 124.057 1.11008 123.681 1.27859C123.304 1.4471 122.968 1.69322 122.693 2.00083C122.418 2.30844 122.211 2.67061 122.086 3.06362C121.961 3.45663 121.921 3.87163 121.967 4.28144C121.921 4.69125 121.961 5.10624 122.086 5.49925C122.211 5.89227 122.418 6.25443 122.693 6.56204C122.968 6.86965 123.304 7.11577 123.681 7.28428C124.057 7.4528 124.465 7.5399 124.877 7.5399C125.29 7.5399 125.697 7.4528 126.074 7.28428C126.45 7.11577 126.787 6.86965 127.062 6.56204C127.336 6.25443 127.543 5.89227 127.668 5.49925C127.793 5.10624 127.834 4.69125 127.787 4.28144Z" fill="#EF4123"/>
<path d="M132.043 0.0744629H133.16V3.67339H137.528V0.0744629H138.645V8.42646H137.528V4.64138H133.16V8.42646H132.043V0.0744629Z" fill="#EF4123"/>
<path d="M142.094 0.0744629H146.301L145.966 1.04245H143.223V3.6858H145.941V4.65379H143.223V7.47088H146.35V8.42646H142.094V0.0744629Z" fill="#EF4123"/>
<path d="M149.477 0.0743672H151.177C151.809 0.0371386 152.439 0.169992 153.002 0.45908C153.401 0.688781 153.729 1.02523 153.948 1.43074C154.168 1.83624 154.269 2.29477 154.243 2.75495C154.261 3.24914 154.132 3.73763 153.871 4.15774C153.61 4.57786 153.23 4.91045 152.778 5.11287C152.234 5.33029 151.651 5.43174 151.066 5.41071H150.582V8.42636H149.465L149.477 0.0743672ZM151.153 4.49236C151.543 4.50695 151.93 4.42601 152.282 4.25657C152.548 4.11312 152.766 3.8938 152.907 3.62645C153.049 3.3591 153.107 3.05577 153.076 2.75495C153.096 2.46418 153.039 2.17321 152.911 1.91163C152.782 1.65006 152.587 1.42721 152.344 1.26574C151.963 1.06471 151.533 0.974437 151.103 1.00512H150.532V4.49236H151.153Z" fill="#EF4123"/>
<path d="M157.199 0.0744629H158.329V3.67339H162.697V0.0744629H163.801V8.42646H162.697V4.64138H158.329V8.42646H157.199V0.0744629Z" fill="#EF4123"/>
<path d="M169.544 0H170.376L173.615 8.37681H172.374L171.592 6.20505H168.353L167.534 8.42645H166.293L169.544 0ZM171.257 5.31152L170.475 3.12734L170.016 1.73741C169.929 2.03526 169.78 2.43238 169.532 3.13975L168.75 5.31152H171.257Z" fill="#EF4123"/>
<path d="M176.82 5.77063C177 5.31088 177.305 4.91093 177.701 4.61649C177.247 4.48612 176.851 4.20224 176.582 3.8131C176.312 3.42396 176.186 2.95359 176.225 2.48195C176.223 2.13287 176.294 1.78731 176.435 1.46783C176.576 1.14836 176.782 0.862154 177.041 0.627917C177.3 0.393679 177.605 0.216675 177.937 0.108465C178.269 0.000254205 178.62 -0.0367291 178.967 -6.9649e-05H181.238V8.42639H180.121V4.96397H178.88C178.62 4.96397 178.322 5.23699 177.962 5.9816L176.721 8.46362H175.418L176.82 5.77063ZM179.091 4.04562H180.134V1.00515H179.129C178.913 0.98372 178.696 1.00865 178.491 1.07827C178.286 1.14789 178.099 1.26057 177.941 1.40873C177.784 1.55689 177.66 1.7371 177.578 1.93721C177.496 2.13732 177.457 2.35269 177.466 2.56882C177.466 3.59886 178.198 4.04562 179.153 4.04562" fill="#EF4123"/>
<path d="M188.77 0.0744226H189.886V3.72299H190.706C191.947 3.72299 192.108 2.0104 192.666 0.856259C192.774 0.597605 192.957 0.377451 193.192 0.22465C193.426 0.0718498 193.702 -0.00646778 193.982 -3.80074e-05C194.193 -0.00549916 194.403 0.028161 194.602 0.0992428V1.11687C194.468 1.06505 194.324 1.03977 194.18 1.04241C194.05 1.03638 193.921 1.06991 193.81 1.13858C193.7 1.20725 193.612 1.30784 193.56 1.42712C193.15 2.18414 192.964 3.64853 192.083 4.16975C192.48 4.30627 192.79 4.72821 193.138 5.41076L194.751 8.41401H193.51L192.071 5.70861C191.686 4.964 191.376 4.70339 191.127 4.70339H189.886V8.42642H188.77V0.0744226Z" fill="#EF4123"/>
<path d="M197.086 4.28149C197.086 3.19534 197.517 2.15368 198.285 1.38565C199.053 0.617629 200.095 0.186157 201.181 0.186157C202.267 0.186157 203.309 0.617629 204.077 1.38565C204.845 2.15368 205.277 3.19534 205.277 4.28149C205.277 5.36764 204.845 6.4093 204.077 7.17733C203.309 7.94535 202.267 8.37682 201.181 8.37682C200.095 8.37682 199.053 7.94535 198.285 7.17733C197.517 6.4093 197.086 5.36764 197.086 4.28149ZM204.085 4.28149C204.132 3.87168 204.091 3.45668 203.966 3.06367C203.841 2.67066 203.634 2.30849 203.359 2.00088C203.085 1.69327 202.748 1.44715 202.372 1.27864C201.995 1.11013 201.587 1.02302 201.175 1.02302C200.763 1.02302 200.355 1.11013 199.978 1.27864C199.602 1.44715 199.265 1.69327 198.991 2.00088C198.716 2.30849 198.509 2.67066 198.384 3.06367C198.259 3.45668 198.218 3.87168 198.265 4.28149C198.218 4.6913 198.259 5.1063 198.384 5.49931C198.509 5.89232 198.716 6.25449 198.991 6.5621C199.265 6.86971 199.602 7.11583 199.978 7.28434C200.355 7.45285 200.763 7.53996 201.175 7.53996C201.587 7.53996 201.995 7.45285 202.372 7.28434C202.748 7.11583 203.085 6.86971 203.359 6.5621C203.634 6.25449 203.841 5.89232 203.966 5.49931C204.091 5.1063 204.132 4.6913 204.085 4.28149Z" fill="#EF4123"/>
<path d="M208.341 0.0743807H209.384L211.655 3.47475C211.99 3.98356 212.201 4.29382 212.412 4.6413C212.598 4.30623 212.821 3.93392 213.144 3.40029L215.266 0.0495605H216.296V8.42638H215.192V3.27619C215.192 2.87906 215.192 2.37025 215.192 1.94831C215.018 2.27097 214.745 2.70532 214.596 2.94111L212.672 6.00641H212.114L210.004 2.87906C209.8 2.5887 209.613 2.28616 209.446 1.97313C209.446 2.34543 209.446 2.89147 209.446 3.21414V8.42638H208.316L208.341 0.0743807Z" fill="#EF4123"/>
<path d="M219.781 0.0744629H226.036V8.42646H224.919V1.04245H220.886V8.42646H219.781V0.0744629Z" fill="#EF4123"/>
<path d="M231.769 0H232.6L235.79 8.42645H234.549L233.817 6.20505H230.59L229.796 8.40163H228.555L231.769 0ZM233.457 5.26188L232.675 3.0777L232.216 1.68777C232.129 1.98562 231.98 2.38274 231.732 3.09011L230.95 5.26188H233.457Z" fill="#EF4123"/>
<path d="M238.41 0.0744629H239.539V3.67339H243.908V0.0744629H245.012V8.42646H243.908V4.64138H239.539V8.42646H238.41V0.0744629Z" fill="#EF4123"/>
<path d="M248.473 0.0744617H249.59V5.12537C249.59 5.70865 249.59 6.11818 249.59 6.56494C249.863 6.15541 250.21 5.63419 250.706 5.00127L254.43 0.0372314H255.522V8.42646H254.405V3.1894C254.405 2.5813 254.405 2.19659 254.405 1.79947C254.132 2.209 253.772 2.7054 253.325 3.3135L249.441 8.42646H248.485L248.473 0.0744617Z" fill="#EF4123"/>
<path d="M259.57 5.77069C259.749 5.31094 260.055 4.91099 260.451 4.61655C260 4.48148 259.61 4.1956 259.346 3.80692C259.082 3.41823 258.959 2.95041 258.999 2.48201C258.997 2.13409 259.068 1.78969 259.208 1.47115C259.348 1.15262 259.554 0.867064 259.811 0.633023C260.069 0.398982 260.372 0.221682 260.703 0.112626C261.033 0.00357061 261.383 -0.0348036 261.729 -6.52112e-06H264V8.42645H262.883V4.96403H261.642C261.394 4.96403 261.084 5.23705 260.724 5.98166L259.483 8.46368H258.18L259.57 5.77069ZM261.853 4.04569H262.896V1.00521H261.853C261.633 0.974044 261.409 0.991691 261.196 1.0569C260.984 1.12211 260.789 1.23328 260.624 1.38253C260.459 1.53177 260.329 1.71542 260.244 1.92046C260.158 2.12549 260.119 2.34687 260.128 2.56888C260.128 3.59892 260.86 4.04569 261.816 4.04569" fill="#EF4123"/>
</g>
<defs>
<clipPath id="clip0_1551_46367">
<rect width="264" height="45.4086" fill="white"/>
</clipPath>
</defs>
</svg>
