<svg width="104" height="104" viewBox="0 0 104 104" fill="none" xmlns="http://www.w3.org/2000/svg">
<path fill-rule="evenodd" clip-rule="evenodd" d="M91 29.25V91C91 94.4478 89.6304 97.7544 87.1924 100.192C84.7544 102.63 81.4478 104 78 104H71.5V97.5H78C79.7239 97.5 81.3772 96.8152 82.5962 95.5962C83.8152 94.3772 84.5 92.7239 84.5 91V29.25H71.5C68.9141 29.25 66.4342 28.2228 64.6057 26.3943C62.7772 24.5658 61.75 22.0859 61.75 19.5V6.5H26C24.2761 6.5 22.6228 7.18482 21.4038 8.40381C20.1848 9.62279 19.5 11.2761 19.5 13V71.5H13V13C13 9.55219 14.3696 6.24558 16.8076 3.80761C19.2456 1.36964 22.5522 0 26 0L61.75 0L91 29.25ZM10.4 77.025H0V103.018H5.1415V94.2955H10.361C12.2265 94.2955 13.8125 93.925 15.119 93.171C16.4385 92.4105 17.446 91.3835 18.1285 90.09C18.8369 88.7327 19.1965 87.2204 19.175 85.6895C19.175 84.0645 18.8305 82.5955 18.148 81.289C17.4691 79.9903 16.4313 78.914 15.158 78.1885C13.858 77.4085 12.2785 77.025 10.4 77.025ZM13.9425 85.6895C13.9659 86.5459 13.7761 87.3947 13.39 88.1595C13.0436 88.8254 12.5045 89.3713 11.843 89.726C11.0863 90.1004 10.2494 90.2834 9.4055 90.259H5.122V81.12H9.412C10.829 81.12 11.9405 81.51 12.74 82.2965C13.5395 83.0895 13.9425 84.2205 13.9425 85.6895ZM21.853 77.025V103.018H31.343C33.9495 103.018 36.114 102.499 37.83 101.478C39.5665 100.439 40.9225 98.8688 41.6975 96.9995C42.5425 95.0495 42.9715 92.6965 42.9715 89.9535C42.9715 87.2235 42.549 84.8965 41.6975 82.966C40.9317 81.1182 39.5887 79.5676 37.869 78.546C36.153 77.532 33.9755 77.025 31.3365 77.025H21.853ZM26.9945 81.2175H30.654C32.266 81.2175 33.579 81.5425 34.6125 82.2055C35.6852 82.9071 36.4946 83.9451 36.9135 85.1565C37.427 86.463 37.6805 88.0945 37.6805 90.051C37.7007 91.3474 37.5521 92.6409 37.2385 93.899C37.0069 94.8912 36.5732 95.825 35.9645 96.642C35.399 97.3709 34.6497 97.9363 33.7935 98.28C32.7903 98.6553 31.7248 98.8362 30.654 98.813H26.9945V81.2175ZM51.324 92.677V103.018H46.189V77.025H62.751V81.2695H51.324V88.53H61.763V92.677H51.324Z" fill="#FA1476"/>
</svg>
