<svg width="24" height="24" viewBox="0 0 24 24" fill="none" xmlns="http://www.w3.org/2000/svg">
<path d="M5.481 1.99195C5.39245 1.87805 5.28068 1.78428 5.15311 1.71689C5.02554 1.6495 4.88508 1.61003 4.74108 1.60109C4.59708 1.59215 4.45283 1.61395 4.3179 1.66505C4.18297 1.71615 4.06046 1.79537 3.9585 1.89745L2.4075 3.44995C1.683 4.17595 1.416 5.20345 1.7325 6.10495C3.04611 9.83634 5.18295 13.2241 7.9845 16.017C10.7774 18.8185 14.1651 20.9553 17.8965 22.269C18.798 22.5855 19.8255 22.3185 20.5515 21.594L22.1025 20.043C22.2046 19.941 22.2838 19.8185 22.3349 19.6836C22.386 19.5486 22.4078 19.4044 22.3989 19.2604C22.3899 19.1164 22.3505 18.9759 22.2831 18.8484C22.2157 18.7208 22.1219 18.609 22.008 18.5205L18.5475 15.8295C18.4258 15.7351 18.2843 15.6696 18.1336 15.6379C17.9829 15.6062 17.8269 15.6091 17.6775 15.6465L14.3925 16.467C13.954 16.5765 13.4946 16.5707 13.0591 16.4501C12.6235 16.3294 12.2266 16.098 11.907 15.7785L8.223 12.093C7.90316 11.7735 7.67149 11.3767 7.55057 10.9411C7.42965 10.5055 7.4236 10.0461 7.533 9.60745L8.35501 6.32245C8.39237 6.17305 8.39531 6.01711 8.36361 5.8664C8.33191 5.71569 8.26639 5.57415 8.172 5.45245L5.481 1.99195ZM2.826 0.766454C3.0885 0.503878 3.40385 0.30015 3.75111 0.168796C4.09838 0.0374423 4.46962 -0.0185307 4.84018 0.00459377C5.21074 0.0277182 5.57213 0.129411 5.90038 0.302919C6.22862 0.476428 6.51619 0.717781 6.744 1.01095L9.435 4.46995C9.9285 5.10445 10.1025 5.93095 9.9075 6.71095L9.087 9.99595C9.04458 10.1661 9.04687 10.3443 9.09366 10.5133C9.14044 10.6823 9.23013 10.8363 9.354 10.9605L13.0395 14.646C13.1638 14.7701 13.318 14.8599 13.4873 14.9067C13.6566 14.9535 13.8351 14.9557 14.0055 14.913L17.289 14.0925C17.6739 13.9962 18.0757 13.9887 18.4639 14.0706C18.8522 14.1525 19.2167 14.3215 19.53 14.565L22.989 17.256C24.2325 18.2235 24.3465 20.061 23.2335 21.1725L21.6825 22.7235C20.5725 23.8335 18.9135 24.321 17.367 23.7765C13.4088 22.3837 9.81491 20.1177 6.852 17.1465C3.88094 14.184 1.61492 10.5906 0.222004 6.63295C-0.320996 5.08795 0.166505 3.42745 1.2765 2.31745L2.8275 0.766454H2.826Z" fill="#FA1476"/>
</svg>
